<svg width="129" height="461" viewBox="0 0 129 461" fill="none" xmlns="http://www.w3.org/2000/svg">
<g opacity="0.7">
<path d="M22.4472 23.2349C22.4472 23.2349 16.2569 25.4683 17.0975 27.6709C100.691 247.147 121.34 348.698 113.56 460.554C113.56 460.554 125.834 463.527 126.736 454.116C146.163 253.277 26.8493 27.979 22.4472 23.2349Z" fill="url(#paint0_linear_1_136)"/>
<path d="M32.0607 9.60306C29.2788 8.60187 16.5465 17.7204 20.4289 27.5012C21.6669 30.6126 26.3136 28.7489 30.9754 22.4799C33.7573 18.737 34.7355 10.558 32.0607 9.60306Z" fill="url(#paint1_linear_1_136)"/>
<path d="M1.10877 18.6448C4.36445 15.8261 23.7915 16.1495 22.0338 28.2254C21.4835 32.0607 14.8652 33.3546 6.77948 30.3972C1.94945 28.6259 -2.00934 21.3557 1.10877 18.6448Z" fill="url(#paint2_linear_1_136)"/>
<path d="M20.6279 0.0534007C17.4792 0.977576 10.5398 21.5867 19.5274 30.3355C22.3856 33.1234 25.7177 27.3473 26.6501 16.3035C27.2157 9.6802 23.6543 -0.839968 20.6279 0.0534007Z" fill="url(#paint3_linear_1_136)"/>
<path d="M6.29111 8.84836C9.73021 7.89338 26.3602 18.7832 22.0804 29.4575C20.72 32.8461 14.7437 30.4895 8.47686 23.2501C4.71678 18.9065 2.97429 9.75713 6.29111 8.84836Z" fill="url(#paint4_linear_1_136)"/>
</g>
<defs>
<linearGradient id="paint0_linear_1_136" x1="-22.0705" y1="81.7644" x2="214.191" y2="396.648" gradientUnits="userSpaceOnUse">
<stop stop-color="#9CD38B"/>
<stop offset="0.0186" stop-color="#9CD28A"/>
<stop offset="0.6632" stop-color="#91AB6B"/>
<stop offset="1" stop-color="#8D9C5F"/>
</linearGradient>
<linearGradient id="paint1_linear_1_136" x1="25.5298" y1="11.1789" x2="27.6621" y2="28.5481" gradientUnits="userSpaceOnUse">
<stop stop-color="#9CD38B"/>
<stop offset="0.0186" stop-color="#9CD28A"/>
<stop offset="0.6632" stop-color="#91AB6B"/>
<stop offset="1" stop-color="#8D9C5F"/>
</linearGradient>
<linearGradient id="paint2_linear_1_136" x1="10.0332" y1="15.8253" x2="16.9074" y2="32.483" gradientUnits="userSpaceOnUse">
<stop stop-color="#9CD38B"/>
<stop offset="0.0186" stop-color="#9CD28A"/>
<stop offset="0.6632" stop-color="#91AB6B"/>
<stop offset="1" stop-color="#8D9C5F"/>
</linearGradient>
<linearGradient id="paint3_linear_1_136" x1="14.9567" y1="6.87069" x2="30.4036" y2="23.1432" gradientUnits="userSpaceOnUse">
<stop stop-color="#9CD38B"/>
<stop offset="0.0186" stop-color="#9CD28A"/>
<stop offset="0.6632" stop-color="#91AB6B"/>
<stop offset="1" stop-color="#8D9C5F"/>
</linearGradient>
<linearGradient id="paint4_linear_1_136" x1="14.7277" y1="10.9093" x2="12.0275" y2="30.1414" gradientUnits="userSpaceOnUse">
<stop stop-color="#9CD38B"/>
<stop offset="0.0186" stop-color="#9CD28A"/>
<stop offset="0.6632" stop-color="#91AB6B"/>
<stop offset="1" stop-color="#8D9C5F"/>
</linearGradient>
</defs>
</svg>
