<svg width="142" height="532" viewBox="0 0 142 532" fill="none" xmlns="http://www.w3.org/2000/svg">
<g clip-path="url(#clip0_2995_10)">
<g opacity="0.7">
<path d="M61.9085 34.03C61.9085 34.03 70.4096 34.3653 70.2386 37.4915C52.2421 346.695 82.5702 482.093 89.6383 541.748C89.6383 541.748 73.3402 551.103 70.8686 538.901C35.0392 362.659 58.3039 41.7456 61.9085 34.03Z" fill="url(#paint0_linear_2995_10)"/>
<path d="M44.7376 20.7079C47.7826 18.3326 67.0609 24.731 66.0545 38.5806C65.7265 42.9851 59.2623 42.4834 51.0769 36.4552C46.1747 32.8685 41.7997 22.9811 44.7376 20.7079Z" fill="url(#paint1_linear_2995_10)"/>
<path d="M86.4834 19.7696C81.3701 17.5026 57.5012 25.6646 64.3541 40.1338C66.5325 44.7316 75.1875 43.7311 84.0324 36.7941C89.31 32.645 91.3846 21.9324 86.4834 19.7696Z" fill="url(#paint2_linear_2995_10)"/>
<path d="M55.1338 4.14458C59.3891 4.0522 75.9577 27.2003 68.2532 41.7921C65.7978 46.4256 59.438 40.4923 53.9868 26.968C50.7404 18.8868 51.0478 4.24715 55.1338 4.14458Z" fill="url(#paint3_linear_2995_10)"/>
<path d="M76.2708 9.50124C71.6442 9.67115 55.3495 29.9934 64.7757 41.6893C67.771 45.4162 74.2421 40.0682 79.1599 28.4728C82.111 21.5232 80.7093 9.32213 76.2708 9.50124Z" fill="url(#paint4_linear_2995_10)"/>
</g>
</g>
<defs>
<linearGradient id="paint0_linear_2995_10" x1="118.99" y1="79.1139" x2="-35.0376" y2="510.163" gradientUnits="userSpaceOnUse">
<stop stop-color="#9CD38B"/>
<stop offset="0.0186" stop-color="#9CD28A"/>
<stop offset="0.6632" stop-color="#91AB6B"/>
<stop offset="1" stop-color="#8D9C5F"/>
</linearGradient>
<linearGradient id="paint1_linear_2995_10" x1="53.4108" y1="20.0903" x2="57.7115" y2="42.742" gradientUnits="userSpaceOnUse">
<stop stop-color="#9CD38B"/>
<stop offset="0.0186" stop-color="#9CD28A"/>
<stop offset="0.6632" stop-color="#91AB6B"/>
<stop offset="1" stop-color="#8D9C5F"/>
</linearGradient>
<linearGradient id="paint2_linear_2995_10" x1="74.3535" y1="19.7668" x2="72.2999" y2="43.4432" gradientUnits="userSpaceOnUse">
<stop stop-color="#9CD38B"/>
<stop offset="0.0186" stop-color="#9CD28A"/>
<stop offset="0.6632" stop-color="#91AB6B"/>
<stop offset="1" stop-color="#8D9C5F"/>
</linearGradient>
<linearGradient id="paint3_linear_2995_10" x1="64.7959" y1="10.4663" x2="51.6841" y2="36.897" gradientUnits="userSpaceOnUse">
<stop stop-color="#9CD38B"/>
<stop offset="0.0186" stop-color="#9CD28A"/>
<stop offset="0.6632" stop-color="#91AB6B"/>
<stop offset="1" stop-color="#8D9C5F"/>
</linearGradient>
<linearGradient id="paint4_linear_2995_10" x1="66.6483" y1="15.454" x2="77.8084" y2="38.3867" gradientUnits="userSpaceOnUse">
<stop stop-color="#9CD38B"/>
<stop offset="0.0186" stop-color="#9CD28A"/>
<stop offset="0.6632" stop-color="#91AB6B"/>
<stop offset="1" stop-color="#8D9C5F"/>
</linearGradient>
<clipPath id="clip0_2995_10">
<rect width="142" height="532" fill="white"/>
</clipPath>
</defs>
</svg>
