<svg width="149" height="405" viewBox="0 0 149 405" fill="none" xmlns="http://www.w3.org/2000/svg">
<g clip-path="url(#clip0_2995_9)">
<g opacity="0.7">
<path d="M87.9849 56.066C87.9849 56.066 79.8042 57.2932 80.2888 60.328C129.263 360.384 113.785 495.82 113.048 554.826C113.048 554.826 129.754 562.237 130.896 550.059C147.517 374.153 92.2564 63.2193 87.9849 56.066Z" fill="url(#paint0_linear_2995_9)"/>
<path d="M103.217 41.2385C100.032 39.2412 82.0559 47.5302 84.4431 60.9488C85.21 65.2154 91.4054 64.0413 98.6996 57.2879C103.07 53.2664 106.288 43.1476 103.217 41.2385Z" fill="url(#paint1_linear_2995_9)"/>
<path d="M62.7801 44.7408C67.4897 41.9857 91.3891 47.4301 86.2448 62.2858C84.6093 67.0065 76.1434 66.9454 66.8876 61.1071C61.3638 57.6138 58.2647 47.3717 62.7801 44.7408Z" fill="url(#paint2_linear_2995_9)"/>
<path d="M91.4787 26.1636C87.3571 26.5238 73.7105 50.8833 82.6462 64.3179C85.4922 68.5829 91.032 62.1155 94.9183 48.331C97.23 40.0955 95.4376 25.8313 91.4787 26.1636Z" fill="url(#paint3_linear_2995_9)"/>
<path d="M71.6002 33.6317C76.0885 33.3079 93.9106 51.4294 85.9963 63.8491C83.4825 67.8057 76.6829 63.2679 70.7462 52.4646C67.1845 45.9901 67.2929 33.9265 71.6002 33.6317Z" fill="url(#paint4_linear_2995_9)"/>
</g>
</g>
<defs>
<linearGradient id="paint0_linear_2995_9" x1="37.4292" y1="106.136" x2="234.376" y2="508.793" gradientUnits="userSpaceOnUse">
<stop stop-color="#9CD38B"/>
<stop offset="0.0186" stop-color="#9CD28A"/>
<stop offset="0.6632" stop-color="#91AB6B"/>
<stop offset="1" stop-color="#8D9C5F"/>
</linearGradient>
<linearGradient id="paint1_linear_2995_9" x1="94.7726" y1="41.5534" x2="92.95" y2="64.1313" gradientUnits="userSpaceOnUse">
<stop stop-color="#9CD38B"/>
<stop offset="0.0186" stop-color="#9CD28A"/>
<stop offset="0.6632" stop-color="#91AB6B"/>
<stop offset="1" stop-color="#8D9C5F"/>
</linearGradient>
<linearGradient id="paint2_linear_2995_9" x1="74.5015" y1="43.4543" x2="79.0537" y2="66.3289" gradientUnits="userSpaceOnUse">
<stop stop-color="#9CD38B"/>
<stop offset="0.0186" stop-color="#9CD28A"/>
<stop offset="0.6632" stop-color="#91AB6B"/>
<stop offset="1" stop-color="#8D9C5F"/>
</linearGradient>
<linearGradient id="paint3_linear_2995_9" x1="82.7874" y1="33.3599" x2="98.4226" y2="57.613" gradientUnits="userSpaceOnUse">
<stop stop-color="#9CD38B"/>
<stop offset="0.0186" stop-color="#9CD28A"/>
<stop offset="0.6632" stop-color="#91AB6B"/>
<stop offset="1" stop-color="#8D9C5F"/>
</linearGradient>
<linearGradient id="paint4_linear_2995_9" x1="81.507" y1="38.4265" x2="72.9504" y2="61.9617" gradientUnits="userSpaceOnUse">
<stop stop-color="#9CD38B"/>
<stop offset="0.0186" stop-color="#9CD28A"/>
<stop offset="0.6632" stop-color="#91AB6B"/>
<stop offset="1" stop-color="#8D9C5F"/>
</linearGradient>
<clipPath id="clip0_2995_9">
<rect width="149" height="551" fill="white"/>
</clipPath>
</defs>
</svg>
