<svg width="151" height="539" viewBox="0 0 151 539" fill="none" xmlns="http://www.w3.org/2000/svg">
<g opacity="0.7">
<path d="M80.1793 40.3453C80.1793 40.3453 71.7024 41.5725 72.2045 44.6073C122.952 344.663 106.914 480.099 106.15 539.105C106.15 539.105 123.46 546.516 124.644 534.339C141.868 358.433 84.6054 47.4986 80.1793 40.3453Z" fill="url(#paint0_linear_2995_8)"/>
<path d="M95.9632 25.5178C92.6626 23.5205 74.0357 31.8095 76.5094 45.2281C77.304 49.4947 83.7238 48.3206 91.2821 41.5672C95.8112 37.5457 99.1456 27.4269 95.9632 25.5178Z" fill="url(#paint1_linear_2995_8)"/>
<path d="M54.0614 29.02C58.9416 26.2649 83.7064 31.7093 78.3758 46.565C76.6811 51.2857 67.9086 51.2246 58.3176 45.3863C52.5938 41.893 49.3825 31.6509 54.0614 29.02Z" fill="url(#paint2_linear_2995_8)"/>
<path d="M83.7997 10.443C79.5288 10.8032 65.3881 35.1627 74.6473 48.5973C77.5964 52.8623 83.3368 46.3949 87.3638 32.6105C89.7592 24.3749 87.9019 10.1107 83.7997 10.443Z" fill="url(#paint3_linear_2995_8)"/>
<path d="M63.2015 17.9109C67.8523 17.5871 86.3198 35.7087 78.1188 48.1283C75.514 52.0849 68.4682 47.5471 62.3165 36.7438C58.6258 30.2694 58.7381 18.2058 63.2015 17.9109Z" fill="url(#paint4_linear_2995_8)"/>
</g>
<defs>
<linearGradient id="paint0_linear_2995_8" x1="27.7928" y1="90.4148" x2="220.41" y2="498.482" gradientUnits="userSpaceOnUse">
<stop stop-color="#9CD38B"/>
<stop offset="0.0186" stop-color="#9CD28A"/>
<stop offset="0.6632" stop-color="#91AB6B"/>
<stop offset="1" stop-color="#8D9C5F"/>
</linearGradient>
<linearGradient id="paint1_linear_2995_8" x1="87.213" y1="25.8327" x2="85.4533" y2="48.4206" gradientUnits="userSpaceOnUse">
<stop stop-color="#9CD38B"/>
<stop offset="0.0186" stop-color="#9CD28A"/>
<stop offset="0.6632" stop-color="#91AB6B"/>
<stop offset="1" stop-color="#8D9C5F"/>
</linearGradient>
<linearGradient id="paint2_linear_2995_8" x1="66.2073" y1="27.7334" x2="70.6119" y2="50.6681" gradientUnits="userSpaceOnUse">
<stop stop-color="#9CD38B"/>
<stop offset="0.0186" stop-color="#9CD28A"/>
<stop offset="0.6632" stop-color="#91AB6B"/>
<stop offset="1" stop-color="#8D9C5F"/>
</linearGradient>
<linearGradient id="paint3_linear_2995_8" x1="74.7937" y1="17.6394" x2="90.1929" y2="42.3915" gradientUnits="userSpaceOnUse">
<stop stop-color="#9CD38B"/>
<stop offset="0.0186" stop-color="#9CD28A"/>
<stop offset="0.6632" stop-color="#91AB6B"/>
<stop offset="1" stop-color="#8D9C5F"/>
</linearGradient>
<linearGradient id="paint4_linear_2995_8" x1="73.4669" y1="22.7058" x2="65.1426" y2="46.4311" gradientUnits="userSpaceOnUse">
<stop stop-color="#9CD38B"/>
<stop offset="0.0186" stop-color="#9CD28A"/>
<stop offset="0.6632" stop-color="#91AB6B"/>
<stop offset="1" stop-color="#8D9C5F"/>
</linearGradient>
</defs>
</svg>
