<svg width="81" height="380" viewBox="0 0 81 380" fill="none" xmlns="http://www.w3.org/2000/svg">
<g opacity="0.7">
<path d="M28.9849 31.066C28.9849 31.066 20.8042 32.2932 21.2888 35.328C70.2627 335.384 54.7852 470.82 54.0483 529.826C54.0483 529.826 70.7535 537.237 71.8956 525.059C88.5173 349.153 33.2564 38.2193 28.9849 31.066Z" fill="url(#paint0_linear_1_84)"/>
<path d="M44.217 16.2385C41.0319 14.2412 23.0559 22.5302 25.4431 35.9488C26.21 40.2154 32.4054 39.0413 39.6996 32.2879C44.0704 28.2664 47.2882 18.1476 44.217 16.2385Z" fill="url(#paint1_linear_1_84)"/>
<path d="M3.78011 19.7408C8.48971 16.9857 32.3891 22.4301 27.2448 37.2858C25.6093 42.0065 17.1434 41.9454 7.88759 36.1071C2.36379 32.6138 -0.735256 22.3717 3.78011 19.7408Z" fill="url(#paint2_linear_1_84)"/>
<path d="M32.4787 1.16359C28.3571 1.52378 14.7105 25.8833 23.6462 39.3179C26.4922 43.5829 32.032 37.1155 35.9183 23.331C38.23 15.0955 36.4376 0.831299 32.4787 1.16359Z" fill="url(#paint3_linear_1_84)"/>
<path d="M12.6002 8.63166C17.0885 8.3079 34.9106 26.4294 26.9963 38.8491C24.4825 42.8057 17.6829 38.2679 11.7462 27.4646C8.18453 20.9901 8.29286 8.92652 12.6002 8.63166Z" fill="url(#paint4_linear_1_84)"/>
</g>
<defs>
<linearGradient id="paint0_linear_1_84" x1="-21.5708" y1="81.1355" x2="175.376" y2="483.793" gradientUnits="userSpaceOnUse">
<stop stop-color="#9CD38B"/>
<stop offset="0.0186" stop-color="#9CD28A"/>
<stop offset="0.6632" stop-color="#91AB6B"/>
<stop offset="1" stop-color="#8D9C5F"/>
</linearGradient>
<linearGradient id="paint1_linear_1_84" x1="35.7726" y1="16.5534" x2="33.95" y2="39.1313" gradientUnits="userSpaceOnUse">
<stop stop-color="#9CD38B"/>
<stop offset="0.0186" stop-color="#9CD28A"/>
<stop offset="0.6632" stop-color="#91AB6B"/>
<stop offset="1" stop-color="#8D9C5F"/>
</linearGradient>
<linearGradient id="paint2_linear_1_84" x1="15.5015" y1="18.4543" x2="20.0537" y2="41.3289" gradientUnits="userSpaceOnUse">
<stop stop-color="#9CD38B"/>
<stop offset="0.0186" stop-color="#9CD28A"/>
<stop offset="0.6632" stop-color="#91AB6B"/>
<stop offset="1" stop-color="#8D9C5F"/>
</linearGradient>
<linearGradient id="paint3_linear_1_84" x1="23.7874" y1="8.35994" x2="39.4226" y2="32.613" gradientUnits="userSpaceOnUse">
<stop stop-color="#9CD38B"/>
<stop offset="0.0186" stop-color="#9CD28A"/>
<stop offset="0.6632" stop-color="#91AB6B"/>
<stop offset="1" stop-color="#8D9C5F"/>
</linearGradient>
<linearGradient id="paint4_linear_1_84" x1="22.507" y1="13.4265" x2="13.9504" y2="36.9617" gradientUnits="userSpaceOnUse">
<stop stop-color="#9CD38B"/>
<stop offset="0.0186" stop-color="#9CD28A"/>
<stop offset="0.6632" stop-color="#91AB6B"/>
<stop offset="1" stop-color="#8D9C5F"/>
</linearGradient>
</defs>
</svg>
